<?xml version="1.0" encoding="UTF-8" standalone="no"?>
<!-- Created with Inkscape (http://www.inkscape.org/) -->

<svg
   xmlns:dc="http://purl.org/dc/elements/1.1/"
   xmlns:cc="http://creativecommons.org/ns#"
   xmlns:rdf="http://www.w3.org/1999/02/22-rdf-syntax-ns#"
   xmlns:svg="http://www.w3.org/2000/svg"
   xmlns="http://www.w3.org/2000/svg"
   xmlns:sodipodi="http://sodipodi.sourceforge.net/DTD/sodipodi-0.dtd"
   xmlns:inkscape="http://www.inkscape.org/namespaces/inkscape"
   width="210mm"
   height="297mm"
   viewBox="0 0 210 297"
   version="1.1"
   id="svg8"
   inkscape:version="0.92.1 r15371"
   sodipodi:docname="logo.svg">
  <defs
     id="defs2" />
  <sodipodi:namedview
     id="base"
     pagecolor="#ffffff"
     bordercolor="#666666"
     borderopacity="1.0"
     inkscape:pageopacity="0.0"
     inkscape:pageshadow="2"
     inkscape:zoom="0.5759723"
     inkscape:cx="-161.36652"
     inkscape:cy="683.67636"
     inkscape:document-units="mm"
     inkscape:current-layer="layer1"
     showgrid="false"
     inkscape:window-width="1366"
     inkscape:window-height="745"
     inkscape:window-x="-8"
     inkscape:window-y="-8"
     inkscape:window-maximized="1" />
  <metadata
     id="metadata5">
    <rdf:RDF>
      <cc:Work
         rdf:about="">
        <dc:format>image/svg+xml</dc:format>
        <dc:type
           rdf:resource="http://purl.org/dc/dcmitype/StillImage" />
        <dc:title></dc:title>
      </cc:Work>
    </rdf:RDF>
  </metadata>
  <g
     inkscape:label="Capa 1"
     inkscape:groupmode="layer"
     id="layer1">
    <path
       id="text12"
       transform="scale(0.26458333)"
       style="font-style:normal;font-variant:normal;font-weight:bold;font-stretch:normal;font-size:10.58333302px;line-height:1.25;font-family:Papyrus;-inkscape-font-specification:'Papyrus Bold';letter-spacing:0px;word-spacing:0px;fill:#000000;fill-opacity:1;stroke:none;stroke-width:0.99999994"
       d="m 122.71484,94.029297 c -0.20833,0 -0.4427,0.09766 -0.70312,0.292969 -0.19531,0.130208 -0.32552,0.332031 -0.39063,0.605468 -0.11718,-0.05208 -0.22135,-0.07813 -0.3125,-0.07813 -0.0911,0 -0.18229,0.110677 -0.27343,0.332032 -0.026,0.07813 -0.10417,0.240885 -0.23438,0.488281 l -0.37109,-0.273438 -1.58203,1.09375 v 0.410157 0.195312 0.136719 c 0,0.117187 0.0521,0.266927 0.15625,0.449219 -0.13021,0.208333 -0.27995,0.46875 -0.44922,0.78125 -0.18229,0.32552 -0.3711,0.579427 -0.56641,0.761718 v 0.07813 l 0.21484,0.195313 c -0.0911,0.195312 -0.23437,0.371094 -0.42968,0.527343 v 0.3125 l 0.50781,0.23438 0.0781,0.2539 -0.83985,0.0781 c -0.11719,0.27343 -0.1888,0.44922 -0.21484,0.52734 -0.20834,0.5599 -0.33854,0.87891 -0.39063,0.95703 -0.14323,0.2474 -0.21484,0.39063 -0.21484,0.42969 0,0.27344 -0.007,0.41667 -0.0195,0.42969 0,0.0651 -0.1237,0.27994 -0.3711,0.64453 -0.0651,0.0781 -0.16276,0.27344 -0.29297,0.58594 0.10417,0.20833 0.15626,0.36458 0.15626,0.46875 0,0.0651 -0.0326,0.17578 -0.0977,0.33203 l -0.39063,-0.56641 c -0.1302,0.19531 -0.2539,0.41667 -0.37109,0.66406 -0.13021,0.26042 -0.25391,0.44271 -0.37109,0.54688 0.026,0.11719 0.0391,0.22135 0.0391,0.3125 0,0.0521 -0.013,0.0977 -0.0391,0.13672 -0.33855,0.49479 -0.52084,0.76172 -0.54688,0.80078 -0.026,0.0391 -0.0521,0.17578 -0.0781,0.41015 l -0.52735,0.56641 -1.28906,2.5 c -0.14477,0.21567 -0.1282,0.20541 -0.24414,0.38086 0.49871,-0.002 0.99738,-0.004 1.49609,-0.006 0.21046,-0.31243 0.42381,-0.65919 0.64258,-1.07812 0.29948,-0.52084 0.52735,-1.03516 0.68359,-1.54297 l -0.50781,-0.3125 0.15625,-0.25391 c 0.18229,0.013 0.39714,0.0326 0.64453,0.0586 h 0.0195 l 0.29297,-0.13671 -0.0977,-0.54688 c 0.45573,-0.15625 0.80729,-0.51432 1.05468,-1.07422 0.0651,-0.22135 0.21485,-0.40364 0.44922,-0.54687 0.0651,-0.26042 0.20183,-0.57292 0.41016,-0.9375 l 1.13281,-2.14844 c 0.35156,-0.49479 0.63802,-0.93099 0.85938,-1.30859 h 0.11719 c -0.013,-0.35157 0.0911,-0.74219 0.3125,-1.17188 0.11718,-0.221354 0.33854,-0.429687 0.66406,-0.624999 0.20833,0.299479 0.39713,0.624999 0.5664,0.976559 l 0.33204,0.58594 0.35156,1.13281 0.64453,0.80078 0.29297,0.6836 0.29297,0.50781 0.11718,0.76172 c 0.013,0.0391 0.16927,0.27995 0.46875,0.72266 0.0521,0.0781 0.14323,0.2539 0.27344,0.52734 0.10417,-0.013 0.19531,-0.0195 0.27344,-0.0195 0.19531,0 0.35807,0.10416 0.48828,0.3125 l -0.39062,0.17578 c -0.013,0.2474 0.0716,0.53385 0.2539,0.85937 0.2474,0.42969 0.41667,0.91146 0.50781,1.44532 l 0.21485,0.37109 0.48828,0.85938 0.42969,0.60546 0.0762,0.27344 c 0.95576,-0.003 1.91142,-0.006 2.86719,-0.01 l 0.14257,-0.0879 -0.82031,-1.64063 -0.42969,-0.66406 c 0,-0.013 -0.0195,-0.19531 -0.0586,-0.54688 -0.0521,-0.44271 -0.27995,-0.87239 -0.68359,-1.28906 -0.026,-0.35156 -0.0586,-0.56641 -0.0977,-0.64453 l -0.39062,-0.97656 -0.23438,-0.60547 c -0.026,-0.0651 -0.20182,-0.24089 -0.52734,-0.52735 -0.0651,-0.0521 -0.20183,-0.18229 -0.41016,-0.39062 0.15625,-0.2474 0.23438,-0.41016 0.23438,-0.48828 0,-0.10417 -0.0977,-0.39714 -0.29297,-0.87891 -0.27344,-0.6901 -0.53386,-1.07422 -0.78125,-1.15234 -0.52084,-0.15625 -0.81381,-0.2474 -0.87891,-0.27344 -0.10417,-0.0651 -0.21484,-0.22786 -0.33203,-0.48828 l 0.78125,-0.410157 v -0.46875 c 0,-0.208333 -0.0846,-0.651042 -0.25391,-1.328125 -0.28646,-0.507812 -0.45573,-0.963542 -0.50781,-1.367187 -0.013,-0.234375 -0.0911,-0.664063 -0.23437,-1.289063 -0.0391,-0.950521 -0.25391,-1.425781 -0.64454,-1.425781 z m 22.5586,0.09766 c -0.2474,0.260417 -0.72917,0.585938 -1.44532,0.976563 -0.53385,0.3125 -0.98307,0.703125 -1.34765,1.171875 -0.14323,0.16927 -0.22136,0.338541 -0.23438,0.507812 0.14323,0.117188 0.34506,0.182292 0.60547,0.195313 0.22136,0.520833 0.33203,0.852864 0.33203,0.996093 0,0.06511 -0.0846,0.345052 -0.2539,0.839844 0,0.729167 -0.013,1.217447 -0.0391,1.464847 h 0.25391 c -0.026,0.26041 -0.0391,0.42968 -0.0391,0.50781 -0.013,0.59896 -0.0391,0.95052 -0.0781,1.05469 -0.0391,0.14323 -0.0586,0.24739 -0.0586,0.3125 0,0.11718 0.0911,0.28646 0.27344,0.50781 -0.11719,0.26042 -0.17578,0.48177 -0.17578,0.66406 0,0.33854 0.14323,0.72917 0.42968,1.17188 -0.20833,0.23437 -0.3125,0.52083 -0.3125,0.85937 0,0.33854 0.0195,0.76823 0.0586,1.28906 l 0.0195,0.60547 c 0.0391,0.26042 0.0586,0.40365 0.0586,0.42969 0,0.13021 -0.0781,0.48828 -0.23437,1.07422 0.40364,-0.026 0.65104,0.17578 0.74218,0.60547 l -0.52734,1.52344 0.10742,0.0371 c 0.73571,-0.002 1.47133,-0.006 2.20703,-0.008 l 0.01,-0.24414 c 0,-0.22135 -0.21484,-0.33854 -0.64453,-0.35156 v -0.48828 l 0.27344,-0.11719 -0.0977,-0.66406 0.27344,-0.19531 0.0977,-0.58594 v -0.0391 c -0.0521,-0.72917 -0.0781,-1.15886 -0.0781,-1.28907 0,-0.15625 0.007,-0.30599 0.0195,-0.44922 0.026,-0.18229 0.0391,-0.3125 0.0391,-0.39062 0,-0.013 -0.0456,-0.3776 -0.13672,-1.09375 v -0.89844 l -0.11718,-0.72265 c -0.013,-0.39063 -0.0716,-0.74219 -0.17579,-1.05469 0.0911,-0.026 0.17579,-0.0391 0.25391,-0.0391 0.37761,0 0.74219,0.41666 1.09375,1.25 l 0.25391,0.0586 c 0.13021,0.27344 0.22135,0.52734 0.27343,0.76172 0.0521,0.29948 0.18881,0.57943 0.41016,0.83984 0.013,0.42969 0.026,0.67057 0.0391,0.72266 0.026,0.14323 0.10417,0.28646 0.23438,0.42969 0.0911,0.0911 0.25391,0.26692 0.48828,0.52734 -0.013,0.15625 -0.0195,0.28646 -0.0195,0.39062 0,0.27344 0.34505,1.06771 1.03515,2.38282 0.15625,-0.0651 0.29297,-0.0977 0.41016,-0.0977 0.0521,0 0.11068,0.0195 0.17578,0.0586 0.0781,0.0521 0.19532,0.35808 0.35156,0.91797 0.0229,0.0688 0.10851,0.23547 0.17188,0.36719 0.78645,-0.002 1.57293,-0.002 2.35938,-0.004 -0.016,-0.0491 -0.0359,-0.18463 -0.0508,-0.20703 -0.0521,-0.0911 -0.13672,-0.13672 -0.2539,-0.13672 l -0.29297,0.0977 c -0.13021,-0.19531 -0.19531,-0.35156 -0.19531,-0.46875 0,-0.013 0.007,-0.0456 0.0195,-0.0977 h 0.29297 c 0.0521,-0.19531 0.0781,-0.36458 0.0781,-0.50781 0,-0.0391 -0.007,-0.0781 -0.0195,-0.11719 -0.10417,-0.32552 -0.18229,-0.61197 -0.23438,-0.85937 -0.0651,-0.33854 -0.36458,-0.97005 -0.89843,-1.89453 -0.10417,-0.16927 -0.15625,-0.3125 -0.15625,-0.42969 l 0.0195,-0.0781 v -0.0977 c 0,-0.15625 -0.007,-0.2474 -0.0195,-0.27344 l -0.0586,-0.17578 c -0.18229,-0.0391 -0.33203,-0.0586 -0.44922,-0.0586 -0.15624,0 -0.37109,0.18229 -0.64453,0.54687 l -0.15625,-0.0391 -0.27343,-0.95703 C 149.77214,104.85612 150,104.60221 150,104.38086 c 0,-0.20833 -0.22786,-0.45573 -0.68359,-0.74219 0.026,-0.15625 0.0391,-0.29948 0.0391,-0.42969 0,-0.0781 -0.013,-0.14974 -0.0391,-0.21484 -0.0911,-0.23437 -0.15625,-0.48177 -0.19532,-0.74219 -0.41666,-0.20833 -0.625,-0.43619 -0.625,-0.68359 0,-0.16927 0.0195,-0.3776 0.0586,-0.625 v -0.0195 c 0,-0.13021 -0.0846,-0.32552 -0.25391,-0.58594 -0.20833,-0.364583 -0.33203,-0.865885 -0.37109,-1.503906 l -0.0586,-0.05859 c -0.24739,0.0651 -0.51432,0.182291 -0.80078,0.351562 -0.45573,-0.182292 -0.68359,-0.377604 -0.68359,-0.585937 0,-0.195313 0.3776,-0.338542 1.13281,-0.429688 -0.0781,-0.286458 -0.18229,-0.644531 -0.3125,-1.074219 -0.026,-0.377604 -0.0521,-0.585937 -0.0781,-0.625 l -0.3125,-0.273437 c -0.0651,-0.05208 -0.15625,-0.253906 -0.27344,-0.605469 -0.11719,-0.3125 -0.42969,-0.78125 -0.9375,-1.40625 z m 41.17187,0 c -0.24739,0.260417 -0.72916,0.585938 -1.44531,0.976563 -0.53385,0.3125 -0.98307,0.703125 -1.34766,1.171875 -0.14323,0.16927 -0.22135,0.338541 -0.23437,0.507812 0.14323,0.117188 0.34505,0.182292 0.60547,0.195313 0.22135,0.520833 0.33203,0.852864 0.33203,0.996093 0,0.06511 -0.0846,0.345052 -0.25391,0.839844 0,0.729167 -0.013,1.217447 -0.0391,1.464847 h 0.25391 c -0.026,0.26041 -0.0391,0.42968 -0.0391,0.50781 -0.013,0.59896 -0.0391,0.95052 -0.0781,1.05469 -0.0391,0.14323 -0.0586,0.24739 -0.0586,0.3125 0,0.11718 0.0911,0.28646 0.27344,0.50781 -0.11718,0.26042 -0.17578,0.48177 -0.17578,0.66406 0,0.33854 0.14323,0.72917 0.42969,1.17188 -0.20833,0.23437 -0.3125,0.52083 -0.3125,0.85937 0,0.33854 0.0195,0.76823 0.0586,1.28906 l 0.0195,0.60547 c 0.0391,0.26042 0.0586,0.40365 0.0586,0.42969 0,0.13021 -0.0781,0.48828 -0.23438,1.07422 0.40365,-0.026 0.65104,0.17578 0.74219,0.60547 l -0.51172,1.47851 c 0.76757,-0.001 1.53516,-0.004 2.30274,-0.006 l 0.006,-0.16406 c -10e-6,-0.22135 -0.21485,-0.33854 -0.64454,-0.35156 v -0.48828 l 0.27344,-0.11719 -0.0977,-0.66406 0.27344,-0.19531 0.0977,-0.58594 v -0.0391 c -0.0521,-0.72917 -0.0781,-1.15886 -0.0781,-1.28907 0,-0.15625 0.007,-0.30599 0.0195,-0.44922 0.026,-0.18229 0.0391,-0.3125 0.0391,-0.39062 0,-0.013 -0.0456,-0.3776 -0.13672,-1.09375 v -0.89844 l -0.11719,-0.72265 c -0.013,-0.39063 -0.0716,-0.74219 -0.17578,-1.05469 0.0911,-0.026 0.17578,-0.0391 0.25391,-0.0391 0.3776,0 0.74218,0.41666 1.09375,1.25 l 0.2539,0.0586 c 0.13021,0.27344 0.22136,0.52734 0.27344,0.76172 0.0521,0.29948 0.1888,0.57943 0.41016,0.83984 0.013,0.42969 0.026,0.67057 0.0391,0.72266 0.026,0.14323 0.10417,0.28646 0.23437,0.42969 0.0911,0.0911 0.25391,0.26692 0.48829,0.52734 -0.013,0.15625 -0.0195,0.28646 -0.0195,0.39062 0,0.27344 0.34506,1.06771 1.03516,2.38282 0.15625,-0.0651 0.29297,-0.0977 0.41016,-0.0977 0.0521,0 0.11067,0.0195 0.17578,0.0586 0.0781,0.0521 0.19531,0.35808 0.35156,0.91797 0.0183,0.0549 0.0927,0.19809 0.13672,0.29297 0.79231,-0.001 1.58464,-0.003 2.37695,-0.004 -0.01,-0.0254 -0.0236,-0.11844 -0.0332,-0.13282 -0.0521,-0.0911 -0.13672,-0.13672 -0.25391,-0.13672 l -0.29297,0.0977 c -0.1302,-0.19531 -0.19531,-0.35156 -0.19531,-0.46875 0,-0.013 0.007,-0.0456 0.0195,-0.0977 h 0.29297 c 0.0521,-0.19531 0.0781,-0.36458 0.0781,-0.50781 0,-0.0391 -0.007,-0.0781 -0.0195,-0.11719 -0.10417,-0.32552 -0.1823,-0.61197 -0.23438,-0.85937 -0.0651,-0.33854 -0.36458,-0.97005 -0.89844,-1.89453 -0.10416,-0.16927 -0.15625,-0.3125 -0.15625,-0.42969 l 0.0195,-0.0781 v -0.0977 c 0,-0.15625 -0.007,-0.2474 -0.0195,-0.27344 l -0.0586,-0.17578 c -0.18229,-0.0391 -0.33203,-0.0586 -0.44922,-0.0586 -0.15625,0 -0.37109,0.18229 -0.64453,0.54687 l -0.15625,-0.0391 -0.27344,-0.95703 c 0.45573,-0.28646 0.6836,-0.54037 0.6836,-0.76172 0,-0.20833 -0.22787,-0.45573 -0.6836,-0.74219 0.026,-0.15625 0.0391,-0.29948 0.0391,-0.42969 0,-0.0781 -0.013,-0.14974 -0.0391,-0.21484 -0.0911,-0.23437 -0.15625,-0.48177 -0.19531,-0.74219 -0.41667,-0.20833 -0.625,-0.43619 -0.625,-0.68359 0,-0.16927 0.0195,-0.3776 0.0586,-0.625 v -0.0195 c 0,-0.13021 -0.0846,-0.32552 -0.2539,-0.58594 -0.20834,-0.364583 -0.33204,-0.865885 -0.3711,-1.503906 l -0.0586,-0.05859 c -0.2474,0.0651 -0.51432,0.182291 -0.80078,0.351562 -0.45573,-0.182292 -0.6836,-0.377604 -0.6836,-0.585937 0,-0.195313 0.37761,-0.338542 1.13282,-0.429688 -0.0781,-0.286458 -0.1823,-0.644531 -0.3125,-1.074219 -0.026,-0.377604 -0.0521,-0.585937 -0.0781,-0.625 l -0.3125,-0.273437 c -0.0651,-0.05208 -0.15625,-0.253906 -0.27344,-0.605469 -0.11718,-0.3125 -0.42968,-0.78125 -0.9375,-1.40625 z m -12.42187,0.136719 c -0.59896,0.117187 -0.97657,0.201823 -1.13282,0.253906 -0.19531,0.0651 -0.54687,0.247396 -1.05468,0.546875 l -0.60547,0.234375 -0.64453,0.410156 c -0.22136,0.104167 -0.33854,0.162761 -0.35156,0.175782 l -0.3125,0.664062 0.625,0.878906 h 0.48828 c 1.09375,0.104167 1.66666,0.234375 1.71875,0.390625 l -0.0391,0.03906 -0.19531,0.253906 c -0.58594,0.390625 -0.89193,0.598958 -0.91797,0.625 -0.10416,0.09115 -0.29948,0.364583 -0.58594,0.820313 -0.0391,0.0651 -0.0846,0.345052 -0.13671,0.839839 l -2.01172,3.02735 0.0195,0.39062 -0.17578,0.74219 0.0195,0.19531 c 0.0521,0.33854 0.14323,0.63802 0.27344,0.89844 -0.36459,0.026 -0.59245,0.1237 -0.6836,0.29297 -0.0391,0.0911 -0.24739,0.52083 -0.625,1.28906 l -0.39062,1.25 c -0.57292,1.26302 -0.85938,1.97917 -0.85938,2.14844 0,0.0414 0.0403,0.16811 0.0547,0.24023 0.52408,-0.001 1.04818,-7.5e-4 1.57227,-0.002 l 0.0332,-0.25781 0.15625,-0.29297 0.11719,-0.64453 0.41015,-0.58594 0.21485,-0.70312 0.27343,-0.66407 0.25391,-0.68359 c 0.29948,-0.53385 0.44922,-0.87891 0.44922,-1.03516 v -0.23437 l 0.48828,-0.41016 c 0,-0.39062 0.013,-0.58594 0.0391,-0.58594 0.013,-0.013 0.1237,-0.27994 0.33203,-0.80078 0.0391,-0.0781 0.0977,-0.24739 0.17578,-0.50781 h 0.17579 c 0.20833,0.22135 0.31901,0.39063 0.33203,0.50781 l 0.0195,0.97657 1.54297,0.85937 -0.91797,0.15625 c -0.45573,0.0781 -0.68359,0.25391 -0.68359,0.52734 l 0.0195,0.0391 c 0.40364,0.13021 0.60547,0.43619 0.60547,0.91797 0,0.0651 -0.0651,0.20833 -0.19532,0.42968 l 1.42578,0.35157 -1.42578,0.54687 0.0977,0.64453 -0.11719,1.44141 c 1.01301,-0.002 2.02605,-0.004 3.03906,-0.006 l -0.0508,-1.5332 c -0.0781,-0.57292 -0.11719,-0.97006 -0.11719,-1.19141 0,-0.39063 0.0521,-0.74219 0.15626,-1.05469 l -0.21485,-0.21484 -0.52734,0.0586 c -0.0911,-0.14323 -0.13672,-0.27995 -0.13672,-0.41015 0,-0.36459 0.013,-0.57292 0.0391,-0.625 0.28646,-0.45573 0.42969,-0.76172 0.42969,-0.91797 v -0.0977 c -0.10417,-0.98958 -0.15625,-1.50391 -0.15625,-1.54297 0,-0.10416 0.007,-0.3125 0.0195,-0.625 0.013,-0.0911 0.0195,-0.29297 0.0195,-0.60547 l -0.13672,-0.11718 h -0.23437 l -0.0781,-0.0781 0.29297,-0.64453 c -0.42969,-0.0781 -0.64453,-0.21484 -0.64453,-0.41016 0,-0.18229 0.10417,-0.27343 0.3125,-0.27343 0.13021,0 0.27344,0.013 0.42969,0.0391 -0.0911,-0.16927 -0.13672,-0.28646 -0.13672,-0.35156 l 0.0195,-0.292973 -0.0391,-0.566406 0.0977,-0.683594 v -0.664063 l 0.0781,-1.113281 -0.0781,-0.527344 -0.0195,-0.292968 -0.0781,-0.488282 c 0,-0.403645 -0.0521,-0.859375 -0.15625,-1.367187 z m 41.17187,0 c -0.59896,0.117187 -0.97656,0.201823 -1.13281,0.253906 -0.19531,0.0651 -0.54688,0.247396 -1.05469,0.546875 l -0.60547,0.234375 -0.64453,0.410156 c -0.22135,0.104167 -0.33854,0.162761 -0.35156,0.175782 l -0.3125,0.664062 0.625,0.878906 h 0.48828 c 1.09375,0.104167 1.66667,0.234375 1.71875,0.390625 l -0.0391,0.03906 -0.19531,0.253906 c -0.58594,0.390625 -0.89193,0.598958 -0.91797,0.625 -0.10417,0.09115 -0.29948,0.364583 -0.58594,0.820313 -0.0391,0.0651 -0.0846,0.345052 -0.13672,0.839839 l -2.01172,3.02735 0.0195,0.39062 -0.17578,0.74219 0.0195,0.19531 c 0.0521,0.33854 0.14323,0.63802 0.27344,0.89844 -0.36458,0.026 -0.59245,0.1237 -0.68359,0.29297 -0.0391,0.0911 -0.2474,0.52083 -0.625,1.28906 l -0.39063,1.25 c -0.57291,1.26302 -0.85937,1.97917 -0.85937,2.14844 0,0.0285 0.0303,0.1228 0.0371,0.16602 0.5332,-7e-4 1.06641,-0.003 1.59961,-0.004 l 0.0234,-0.18164 0.15625,-0.29297 0.11719,-0.64453 0.41016,-0.58594 0.21484,-0.70312 0.27344,-0.66407 0.2539,-0.68359 c 0.29948,-0.53385 0.44922,-0.87891 0.44922,-1.03516 v -0.23437 l 0.48828,-0.41016 c 10e-6,-0.39062 0.013,-0.58594 0.0391,-0.58594 0.013,-0.013 0.1237,-0.27994 0.33203,-0.80078 0.0391,-0.0781 0.0977,-0.24739 0.17578,-0.50781 h 0.17578 c 0.20833,0.22135 0.31901,0.39063 0.33203,0.50781 l 0.0195,0.97657 1.54297,0.85937 -0.91797,0.15625 c -0.45573,0.0781 -0.68359,0.25391 -0.68359,0.52734 l 0.0195,0.0391 c 0.40365,0.13021 0.60547,0.43619 0.60547,0.91797 0,0.0651 -0.0651,0.20833 -0.19531,0.42968 l 1.42578,0.35157 -1.42578,0.54687 0.0977,0.64453 -0.11132,1.36719 c 1.0104,-0.001 2.02084,-0.005 3.03125,-0.006 l -0.0488,-1.45898 c -0.0781,-0.57292 -0.11719,-0.97006 -0.11719,-1.19141 0,-0.39063 0.0521,-0.74219 0.15625,-1.05469 l -0.21484,-0.21484 -0.52735,0.0586 c -0.0911,-0.14323 -0.13672,-0.27995 -0.13672,-0.41015 0,-0.36459 0.013,-0.57292 0.0391,-0.625 0.28645,-0.45573 0.42968,-0.76172 0.42968,-0.91797 v -0.0977 c -0.10416,-0.98958 -0.15625,-1.50391 -0.15625,-1.54297 0,-0.10416 0.007,-0.3125 0.0195,-0.625 0.013,-0.0911 0.0195,-0.29297 0.0195,-0.60547 l -0.13672,-0.11718 h -0.23438 l -0.0781,-0.0781 0.29297,-0.64453 c -0.42969,-0.0781 -0.64454,-0.21484 -0.64454,-0.41016 10e-6,-0.18229 0.10417,-0.27343 0.3125,-0.27343 0.13021,0 0.27344,0.013 0.42969,0.0391 -0.0911,-0.16927 -0.13672,-0.28646 -0.13672,-0.35156 l 0.0195,-0.292973 -0.0391,-0.566406 0.0977,-0.683594 v -0.664063 l 0.0781,-1.113281 -0.0781,-0.527344 -0.0195,-0.292968 -0.0781,-0.488282 c 0,-0.403645 -0.0521,-0.859375 -0.15625,-1.367187 z M 89.570312,94.458984 c -0.02604,0 -0.31901,0.03906 -0.878906,0.117188 l -1.113281,0.136719 c -1.744792,0.351562 -2.66276,0.527343 -2.753906,0.527343 -0.104167,0 -0.364584,-0.02604 -0.78125,-0.07813 -0.182292,-0.02604 -0.351563,-0.03906 -0.507813,-0.03906 -0.15625,0 -0.3125,0.01302 -0.46875,0.03906 -0.78125,0.09115 -1.595052,0.14974 -2.441406,0.175782 l -0.292969,0.351562 -1.074219,-0.07813 -0.15625,-0.234375 -4.023437,-0.03906 c -0.130208,-0.01302 -0.279948,0.01302 -0.449219,0.07813 -0.182291,0.0651 -0.286458,0.09766 -0.3125,0.09766 l -0.859375,-0.214844 -0.820312,-0.136719 c -0.651042,-0.234375 -1.041667,-0.351562 -1.171875,-0.351562 -0.299479,0 -0.631511,0.110677 -0.996094,0.332031 l -0.410156,-0.05859 h -0.253906 c -0.14323,-0.01302 -0.436198,-0.175781 -0.878907,-0.488281 -0.169271,0.05208 -0.3125,0.07813 -0.429687,0.07813 -0.234375,0 -0.442709,-0.0065 -0.625,-0.01953 -1.197917,-0.117188 -1.848959,-0.175781 -1.953125,-0.175781 -0.117188,0 -0.214844,0.01302 -0.292969,0.03906 -0.260417,0.0651 -0.416667,0.09766 -0.46875,0.09766 -0.104167,0 -0.260417,-0.03906 -0.46875,-0.117187 -0.247396,0.208333 -0.46875,0.371094 -0.664062,0.488281 -0.208334,0.130208 -0.397136,0.325521 -0.566407,0.585938 h -0.371093 c -0.15625,0.195312 -0.253907,0.46875 -0.292969,0.820312 0.169271,0.05208 0.345052,0.07813 0.527343,0.07813 h 0.351563 l 0.09766,0.05859 v 0.09766 l 0.664063,-0.07813 v 0.898438 c 0.15625,0.104166 0.247396,0.16927 0.273437,0.195312 0.01302,0.03906 0.05859,0.423177 0.136719,1.152344 0.07813,0.716146 0.117188,1.223958 0.117188,1.523438 v 2.42187 c -10e-7,0.2474 0.149739,0.50131 0.449218,0.76172 -0.221354,0.23438 -0.332031,0.45573 -0.332031,0.66407 0,0.18229 0.01953,0.39062 0.05859,0.625 0.0651,-0.013 0.117187,-0.0195 0.15625,-0.0195 0.130208,0 0.227864,0.0716 0.292969,0.21485 -0.195313,0.22135 -0.292969,0.40364 -0.292969,0.54687 0,0.0521 0.0065,0.1237 0.01953,0.21485 0.01302,0.0651 0.03255,0.35807 0.05859,0.8789 0,0.13021 0.02604,0.41016 0.07813,0.83985 0.07813,0.0391 0.15625,0.10416 0.234375,0.19531 0.143229,0.14323 0.286458,0.25391 0.429687,0.33203 -0.09115,0.33854 -0.136719,0.6901 -0.136719,1.05469 l -0.46875,0.2539 1.230469,0.46875 -1.191406,0.50782 1.5625,2.01172 -1.5625,1.15234 0.234375,1.75781 c -0.0651,0.3125 -0.09766,0.625 -0.09766,0.9375 0.169271,0.13021 0.286458,0.3125 0.351562,0.54688 l 0.410156,0.19531 v 0.25391 l -0.644531,0.29296 c 1.002604,0.2474 1.510417,0.42318 1.523438,0.52735 l -0.09766,0.0391 c -0.520833,0.23438 -0.800781,0.39714 -0.839843,0.48828 l -0.332031,1.05469 -0.429688,0.56641 v 0.0195 l 0.01953,0.83984 v 0.48828 c 0.143229,0.19531 0.240886,0.38412 0.292969,0.56641 h 0.15625 l 0.253906,-0.48828 c -0.03906,0.13021 -0.07161,0.33854 -0.09766,0.625 0,0.16927 -0.05859,0.28646 -0.175781,0.35156 -0.169271,0.11719 -0.273438,0.22786 -0.3125,0.33203 -0.15625,0.61198 -0.240886,1.08073 -0.253907,1.40625 10e-7,1.02865 -0.03255,1.92708 -0.09766,2.69531 -0.01302,0.0651 -0.01953,0.1237 -0.01953,0.17578 0,0.0521 0.03906,0.20183 0.117187,0.44922 0,0.013 -0.09114,0.14323 -0.273437,0.39063 -0.03906,0.0391 -0.05859,0.0651 -0.05859,0.0781 l 0.01953,1.09375 c -0.377604,0.80729 -0.618489,1.26953 -0.722656,1.38672 -0.130208,0.13021 -0.273437,0.19531 -0.429687,0.19531 -0.02604,0 -0.07162,-0.007 -0.136719,-0.0195 -0.104167,0.23438 -0.15625,0.42318 -0.15625,0.56641 0,0.0911 0.0065,0.20182 0.01953,0.33203 0.299479,0.0781 0.514323,0.11719 0.644531,0.11719 0.07813,0 0.572917,-0.10417 1.484376,-0.3125 l 1.035156,-0.0391 c 0.755208,-0.11719 1.171875,-0.17579 1.25,-0.17579 0.09115,0 0.15625,0.007 0.195312,0.0195 0.520834,0.1302 0.826823,0.19531 0.917969,0.19531 0.247396,0 0.46875,-0.0651 0.664063,-0.19531 0.833333,-0.52084 1.302083,-0.78125 1.40625,-0.78125 0.130208,0 0.253906,0.0716 0.371093,0.21484 0.377604,0.45573 0.579427,0.68359 0.605469,0.68359 l 0.03906,-0.0195 c 0.104167,-0.0391 0.273438,-0.0586 0.507813,-0.0586 0.286458,0 0.572917,0.0651 0.859375,0.19531 0.02604,0.013 0.05208,0.0195 0.07813,0.0195 h 0.03906 l 0.03906,-0.0195 h 0.07813 0.351563 l 0.05859,-0.52734 c 0.338542,-0.10417 0.670573,-0.15625 0.996094,-0.15625 l -0.136719,0.33203 c 0.221354,0.0651 0.364584,0.0976 0.429688,0.0976 l 1.171875,-0.0781 h 0.820312 l 2.050781,-0.0391 c 0.03906,0 0.201823,0.026 0.488282,0.0781 l 0.3125,-0.33203 c 0.143229,0.026 0.266927,0.0391 0.371094,0.0391 0.01302,0 0.130208,-0.013 0.351562,-0.0391 1.119792,0.18229 1.686198,0.27344 1.699219,0.27344 0.130208,0 0.384114,-0.026 0.761719,-0.0781 0.247395,-0.026 0.566406,-0.0391 0.957031,-0.0391 0.651041,0 1.061198,0.013 1.230469,0.0391 0.859374,0.15625 1.321614,0.23438 1.386718,0.23438 0.195313,0 0.46224,-0.0977 0.800782,-0.29297 l 0.273437,0.19531 c 0.15625,-0.0391 0.247396,-0.0586 0.273437,-0.0586 l 1.074219,0.0976 H 90.625 l 0.703125,0.11719 1.015625,0.0391 0.78125,0.15625 1.386719,-1.05468 1.054687,0.91797 0.625,-0.11719 c 1.002604,0.013 1.673177,-0.19531 2.011719,-0.625 l 0.136719,-0.41016 c 0.01302,-0.0651 0.123698,-0.14974 0.332031,-0.2539 0.0651,-0.23438 0.15625,-0.46875 0.273437,-0.70313 0.117188,-0.2474 0.175782,-0.42318 0.175782,-0.52734 0,-0.29948 -0.104167,-0.44922 -0.3125,-0.44922 -0.09115,0 -0.286459,0.0911 -0.585938,0.27344 -0.182291,0.0521 -0.846354,0.20182 -1.992187,0.44921 -0.234375,0 -0.501302,0.007 -0.800781,0.0195 -0.15625,0.0391 -0.319011,0.10416 -0.488282,0.19531 -0.09115,0.0521 -0.149739,0.16927 -0.175781,0.35156 -0.104167,0.0651 -0.266927,0.11719 -0.488281,0.15625 -0.117188,0 -0.325521,0.0391 -0.625,0.11719 -0.208334,-0.19531 -0.384115,-0.29297 -0.527344,-0.29297 -0.169271,0 -0.332031,0.0651 -0.488281,0.19531 -0.703125,0.57292 -1.074219,0.85938 -1.113281,0.85938 -0.05208,0 -0.266928,-0.31901 -0.644532,-0.95703 l -0.195312,0.0976 -0.03906,0.0586 v 0.66406 l -0.566406,-0.0977 -0.234375,-0.68359 c -0.325521,0 -0.520833,-0.007 -0.585938,-0.0195 -0.351562,-0.0911 -0.540364,-0.13672 -0.566406,-0.13672 -0.05208,0 -0.117187,0.007 -0.195312,0.0195 -0.143229,0.0391 -0.221354,0.0521 -0.234375,0.0391 l -0.273438,-0.0195 -3.496093,0.0586 h -0.3125 c -0.507813,0.0651 -0.76823,0.0977 -0.78125,0.0977 -0.03906,0 -0.449219,-0.0325 -1.230469,-0.0977 -0.07813,-0.013 -0.14974,-0.0195 -0.214844,-0.0195 -0.07813,0 -0.130208,0.007 -0.15625,0.0195 -0.403646,0.0781 -0.625,0.11719 -0.664063,0.11719 -0.01302,0 -0.104166,-0.007 -0.273437,-0.0195 h -0.683594 l -0.742187,-0.0195 -2.207032,-0.15625 h -0.09766 c -0.07813,0.013 -0.169271,0.0977 -0.273437,0.25391 l -0.742188,0.625 -0.527343,-0.76172 -0.05859,0.0391 -0.05859,0.0195 c -0.3125,0.2474 -0.572917,0.37109 -0.78125,0.37109 -0.0651,0 -0.110677,-0.007 -0.136719,-0.0195 -0.429687,-0.22135 -0.664062,-0.33854 -0.703125,-0.35156 h -1.054687 l -0.683594,-0.0586 -1.523437,0.29297 h -0.859376 l -0.761718,0.68359 c -0.221354,-0.16927 -0.377604,-0.27344 -0.46875,-0.3125 -0.169271,-0.0781 -0.266927,-0.14974 -0.292969,-0.21484 -0.09115,-0.15625 -0.136719,-0.41667 -0.136719,-0.78125 0.690104,-0.53386 1.035156,-1.0612 1.035156,-1.58204 l -0.117187,-1.62109 -0.01953,-1.38672 c -0.117188,-0.36458 -0.175782,-0.57291 -0.175782,-0.625 10e-7,-0.15625 0.08464,-0.46875 0.253907,-0.9375 -0.169271,-0.15625 -0.30599,-0.23437 -0.410157,-0.23437 -0.0651,0 -0.175781,0.0586 -0.332031,0.17578 h -0.117187 c -0.143229,-0.32552 -0.214844,-0.60547 -0.214844,-0.83985 l 0.722656,-0.42968 c -0.0651,-0.19532 -0.09766,-0.34506 -0.09766,-0.44922 0,-0.013 0.0065,-0.18229 0.01953,-0.50781 l 0.05859,-1.25 0.09766,-0.42969 -0.01953,-0.72266 0.07813,-0.58594 -0.07813,-0.46875 -0.03906,-0.76171 -0.134766,-0.66993 c -0.860251,-0.94393 -0.914969,-2.19705 -0.175781,-3.18554 -0.118427,-0.36806 -0.205738,-0.68583 -0.236329,-0.91016 0.247396,-0.18229 0.371094,-0.37109 0.371094,-0.56641 0,-0.36458 -0.01302,-0.57291 -0.03906,-0.625 -0.05208,-0.11718 -0.201823,-0.26692 -0.449219,-0.44921 l -0.15625,0.0781 c -0.03906,-0.14323 -0.05859,-0.2474 -0.05859,-0.3125 0,-0.14323 0.05208,-0.34505 0.15625,-0.60547 l 0.05859,0.0586 0.332031,-0.0977 c 0.15625,-0.22135 0.240886,-0.3776 0.253906,-0.46875 l -0.117187,-1.09375 0.01953,-1.71875 -0.07813,-0.58594 c -0.02604,-0.42969 -0.110677,-0.82031 -0.253906,-1.17187 0.403646,0 0.826823,-0.026 1.269531,-0.0781 l 0.761719,-0.0391 0.488281,-0.13672 0.585938,0.0195 0.703125,-0.0195 0.585937,0.13672 1.777344,-0.0391 1.386719,0.21484 1.425781,-0.19531 0.429688,0.0195 0.820312,0.0391 0.703125,0.15625 c 0.729167,-0.0911 1.132813,-0.13672 1.210937,-0.13672 0.07813,0 0.429688,0.0391 1.054688,0.11719 0.559896,-0.0521 0.911458,-0.11719 1.054688,-0.19531 0.247395,0.0651 0.436197,0.1237 0.566406,0.17578 0.05208,0.026 0.09115,0.0391 0.117187,0.0391 0.03906,0 0.0651,-0.007 0.07813,-0.0195 0.455729,-0.63802 0.690104,-0.95703 0.703125,-0.95703 0.0651,0 0.345052,0.27344 0.839844,0.82031 0.15625,0.16927 0.332031,0.25391 0.527344,0.25391 0.104166,0 0.325521,-0.0456 0.664062,-0.13672 0.15625,-0.22135 0.377604,-0.41016 0.664063,-0.56641 v -0.52734 c 0.338541,-0.19531 0.514323,-0.33854 0.527344,-0.42969 0.07812,-0.0391 0.130208,-0.27344 0.15625,-0.70312 -0.208334,-0.0391 -0.390626,-0.0586 -0.546876,-0.0586 -0.117187,0 -0.338541,0.11068 -0.664062,0.33203 -0.208333,0.14323 -0.351563,0.26042 -0.429688,0.35157 -0.0651,0.0781 -0.201822,0.29948 -0.410156,0.66406 l -0.820312,-1.07422 -0.09766,0.0781 c -0.07813,0.0911 -0.29948,0.14322 -0.664063,0.15625 v 0.27343 c -0.286458,-0.013 -0.501302,-0.026 -0.644531,-0.0391 -0.299479,-0.026 -0.507813,-0.0391 -0.625,-0.0391 -0.05208,0 -0.09766,0.007 -0.136719,0.0195 -0.507812,0.10417 -1.24349,0.16927 -2.207031,0.19531 -0.625,0.026 -1.106771,0.0391 -1.445313,0.0391 -0.195312,0 -0.364583,0.007 -0.507812,0.0195 -0.572917,0.0391 -0.911459,0.0586 -1.015625,0.0586 -0.05208,0 -0.09766,-0.007 -0.136719,-0.0195 -0.494792,-0.10417 -0.748698,-0.15625 -0.761719,-0.15625 -0.130208,0 -0.390625,0.0326 -0.78125,0.0977 -0.169271,0.0391 -0.364583,0.0586 -0.585937,0.0586 -0.208334,0 -0.423177,-0.013 -0.644531,-0.0391 -0.533855,-0.0781 -1.048178,-0.11719 -1.542969,-0.11719 l -0.761719,-0.0977 -0.917969,-0.0391 -1.289062,-0.23438 c -0.716146,-0.0651 -1.210938,-0.1302 -1.484375,-0.19531 -0.143229,-0.74219 -0.214844,-1.15234 -0.214844,-1.23047 0,-0.10416 0.04557,-0.35807 0.136719,-0.76172 -0.208334,-0.16927 -0.371094,-0.29296 -0.488281,-0.37109 -0.14323,-0.104166 -0.247396,-0.195312 -0.3125,-0.273437 -0.03906,-0.05208 -0.05859,-0.117187 -0.05859,-0.195312 0,-0.07813 0.01953,-0.247396 0.05859,-0.507813 0.130208,0.05208 0.214843,0.07813 0.253906,0.07813 0.182291,0 0.403646,-0.143229 0.664062,-0.429687 -0.01302,-0.208334 -0.02604,-0.481771 -0.03906,-0.820313 -0.01302,-0.390625 -0.117188,-0.768229 -0.3125,-1.132812 0.195312,-0.221355 0.338541,-0.332032 0.429687,-0.332032 l 0.625,0.136719 c 0.390625,-0.03906 0.644532,-0.05859 0.761719,-0.05859 h 0.371094 c 0.9375,0 1.497396,0.03255 1.679687,0.09766 0.299479,0.09114 0.455729,0.136718 0.46875,0.136718 l 0.625,-0.09766 2.207031,0.117188 0.46875,-0.175782 1.015626,0.03906 1.191406,-0.117188 0.429687,0.03906 0.722657,0.01953 1.425781,0.136719 1.210937,-0.234375 h 0.800782 l 1.113281,-0.09766 c 0.638021,0.07813 1.041666,0.117187 1.210937,0.117187 h 0.957032 0.136718 0.175782 c 0.377604,0.169271 0.625,0.260417 0.742187,0.273438 0.286458,0.02604 0.598958,0.05208 0.9375,0.07813 h 0.03906 c 0.143229,0.01302 0.364583,-0.104167 0.664062,-0.351563 0.273437,-0.234375 0.455729,-0.377604 0.546875,-0.429687 l 0.976563,-0.527344 0.214843,-0.234375 c 0.195313,-0.234375 0.299479,-0.46224 0.3125,-0.683594 -0.416666,-0.09115 -0.670573,-0.136719 -0.761719,-0.136719 z M 216.4707,116.91992 c -1.00458,0.001 -2.00909,0.005 -3.01367,0.006 2.7e-4,0.5304 0.0328,0.91967 0.0977,1.16602 0.10416,0.39062 0.18229,0.72265 0.23437,0.99609 0.27344,0.0521 0.42318,0.13021 0.44922,0.23438 0.026,0.0781 0.0651,0.33854 0.11719,0.78125 l -0.44922,0.0391 c 0,0.11719 0.026,0.29948 0.0781,0.54687 0.14322,0.75521 0.20833,1.26302 0.19531,1.52344 v 0.0195 l -0.0781,1.52344 v 0.0391 l 0.42969,1.26953 c 0,0.0391 -0.11719,0.50131 -0.35156,1.38672 -0.0391,0.14323 -0.0586,0.27995 -0.0586,0.41016 0,0.26041 0.19532,0.5664 0.58594,0.91797 l 0.0391,0.50781 c -0.35156,0.16927 -0.52734,0.35807 -0.52734,0.56641 0,0.026 0.0586,0.23437 0.17578,0.625 l -0.0586,0.42968 c -0.0391,0.46875 -0.13672,0.91146 -0.29297,1.32813 0.14323,0.0911 0.24739,0.13672 0.3125,0.13672 0.0911,0 0.20182,-0.026 0.33203,-0.0781 0.20833,-0.0911 0.34505,-0.13672 0.41016,-0.13672 0.74218,0.026 1.49088,-0.24088 2.24609,-0.80078 0.41667,-0.44271 0.71615,-0.75521 0.89844,-0.9375 -0.10417,-0.67708 -0.16276,-1.3151 -0.17578,-1.91406 -0.1823,-0.80729 -0.28646,-1.26953 -0.3125,-1.38672 l -0.23438,-0.44922 c -0.013,0 -0.0521,-0.20182 -0.11719,-0.60547 -0.0781,-0.40364 -0.20833,-0.63151 -0.39062,-0.68359 -0.20833,-0.0781 -0.37761,-0.16927 -0.50781,-0.27344 l 0.2539,-0.78125 0.60547,-0.11719 c -0.13021,-0.27343 -0.19531,-0.48177 -0.19531,-0.625 0,-0.013 0.026,-0.16276 0.0781,-0.44921 0.013,-0.10417 0.0195,-0.20834 0.0195,-0.3125 10e-6,-0.19532 -0.007,-0.42318 -0.0195,-0.6836 l -0.72265,-0.54687 c 0.0521,-0.20834 0.0911,-0.37761 0.11718,-0.50782 0.013,-0.0521 0.10417,-0.35807 0.27344,-0.91796 l -0.13672,-0.25391 -0.13672,-0.89844 z m -9.74023,0.0176 c -0.32618,4.3e-4 -0.65234,0.002 -0.97852,0.002 -0.032,0.0588 -0.0704,0.12179 -0.12695,0.19532 l -0.50781,-0.0586 c -0.10417,0.27344 -0.19532,0.46224 -0.27344,0.56641 l -0.35156,0.48828 c 0,0.013 0.0716,0.26042 0.21484,0.74219 0.013,0.0391 0.0195,0.0781 0.0195,0.11718 0,0.11719 -0.0846,0.23438 -0.2539,0.35157 -0.33855,0.22135 -0.53386,0.36458 -0.58594,0.42968 -0.026,0.0521 -0.25391,0.42969 -0.6836,1.13282 l -0.15624,0.625 -0.33204,0.58593 -0.21484,0.42969 -0.60547,1.11328 c -0.24739,0.46875 -0.46875,0.83334 -0.66406,1.09375 -0.13021,0 -0.21485,-0.013 -0.25391,-0.0391 -0.0911,-0.0651 -0.2539,-0.32552 -0.48828,-0.78125 l -0.39062,-0.58594 -0.87891,-1.95312 c -0.42969,-0.75521 -0.71615,-1.35417 -0.85937,-1.79688 l -0.3711,-0.13672 c -0.11719,-0.22135 -0.22786,-0.61197 -0.33203,-1.17187 l -0.46875,-0.11719 c -0.11719,-0.18229 -0.22135,-0.3125 -0.3125,-0.39062 -0.23437,-0.22136 -0.35156,-0.35808 -0.35156,-0.41016 l 0.0469,-0.41406 c -0.86525,0.001 -1.73045,0.004 -2.5957,0.006 0.004,0.006 0.006,0.0111 0.01,0.0176 l 0.15624,0.52734 0.17579,0.3125 c 0.0911,0.20833 0.22786,0.46875 0.41015,0.78125 0.0911,0.15625 0.26042,0.5013 0.50782,1.03516 l 0.625,-0.21485 c 0.18229,0.20834 0.27343,0.37761 0.27343,0.50781 0,0.0391 -0.007,0.0716 -0.0195,0.0977 -0.13021,0.36458 -0.19531,0.57292 -0.19531,0.625 0,0.35156 0.0911,0.67057 0.27344,0.95703 0.49479,0.78125 0.78776,1.32162 0.8789,1.6211 0.20834,0.65104 0.37761,1.15234 0.50781,1.5039 l 0.3711,0.0586 c 0.0911,0.28645 0.16927,0.55338 0.23437,0.80078 0.0781,0.36458 0.18881,0.64453 0.33203,0.83984 0.42969,0.54688 0.67709,0.87891 0.74219,0.99609 0.41667,0.98959 0.67709,1.54297 0.78125,1.66016 0.0911,0.10417 0.20834,0.15625 0.35156,0.15625 0.0391,0 0.18881,-0.007 0.44922,-0.0195 h 0.17578 0.41016 c 0.20833,-0.625 0.55339,-1.54297 1.03516,-2.75391 0.0911,-0.39062 0.22786,-0.72916 0.41015,-1.01562 l 0.21485,-0.46875 0.33203,-0.52735 0.25391,-0.625 0.27343,-0.625 0.50781,-1.38671 0.46876,-0.87891 c 0.20833,-0.44271 0.33854,-0.69662 0.39062,-0.76172 0.0781,-0.11719 0.11719,-0.19531 0.11719,-0.23437 0,-0.0911 -0.0195,-0.19532 -0.0586,-0.3125 0.54688,-0.41667 0.82032,-0.9375 0.82032,-1.5625 0,-0.15625 -0.0195,-0.35157 -0.0586,-0.58594 l 0.52735,-0.25391 c 0.0308,-0.11511 0.044,-0.19051 0.0703,-0.29492 z m -20.47852,0.0371 c -0.66863,0.001 -1.33722,0.003 -2.00586,0.004 -0.0131,0.17966 -0.0273,0.36082 -0.0273,0.52734 0,0.41667 0.013,0.90495 0.0391,1.46484 0.22136,0.10417 0.33203,0.22136 0.33203,0.35157 0,0.26041 -0.17578,0.48828 -0.52734,0.68359 0.10417,0.53385 0.15625,0.89844 0.15625,1.09375 0,0.0911 -0.1237,0.59245 -0.37109,1.50391 l 0.17578,0.68359 -0.13672,0.44922 c 0.0651,0.22135 0.0977,0.37109 0.0977,0.44922 -10e-6,0.11718 -0.013,0.21484 -0.0391,0.29297 l -0.15625,0.58593 c 0,0.026 -0.007,0.41016 -0.0195,1.15235 -0.013,0.41666 -0.11068,0.71614 -0.29297,0.89843 l -0.15625,0.19532 1.5625,0.95703 -0.29297,0.39062 -0.3125,0.58594 c -0.0651,0.13021 -0.2539,0.29948 -0.5664,0.50781 -0.45573,0.3125 -0.72917,0.52735 -0.82032,0.64453 -0.26041,0.29948 -0.39062,0.47526 -0.39062,0.52735 v 0.0195 l 0.0195,0.17578 v 0.0391 c 0.11719,0.0521 0.19531,0.0781 0.23438,0.0781 0.013,0 0.43619,-0.14323 1.26953,-0.42969 l 0.625,-0.37109 c 0.76823,-0.2474 1.17187,-0.39063 1.21094,-0.42969 0.0391,-0.0521 0.0586,-0.11068 0.0586,-0.17578 0,-0.11719 -0.026,-0.25391 -0.0781,-0.41016 l 0.48828,-0.3125 c -0.013,-0.14323 -0.0195,-0.27344 -0.0195,-0.39062 0,-0.0651 0.0391,-0.2474 0.11719,-0.54688 l -1.07422,-0.37109 c -0.40364,-0.14323 -0.60547,-0.29948 -0.60547,-0.46875 0,-0.20834 0.26042,-0.40365 0.78125,-0.58594 0.5599,-0.19531 0.83985,-0.38411 0.83985,-0.56641 l -0.0195,-0.0586 c -0.14323,-0.29948 -0.21485,-0.5013 -0.21485,-0.60547 0,-0.10416 0.0195,-0.23437 0.0586,-0.39062 l -0.13672,-0.13672 h -0.15625 l -0.39063,0.48828 c -0.22135,-0.27344 -0.33203,-0.48828 -0.33203,-0.64453 0,-0.23438 0.27344,-0.51432 0.82031,-0.83985 0.16927,-0.10416 0.29297,-0.23437 0.3711,-0.39062 -0.14323,-0.33854 -0.21485,-0.68359 -0.21485,-1.03516 0,-0.46875 0.0391,-0.91797 0.11719,-1.34765 0.10417,-0.53386 0.15625,-0.85938 0.15625,-0.97657 0,-0.16927 -0.007,-0.44921 -0.0195,-0.83984 -0.013,-0.15625 -0.0195,-0.3125 -0.0195,-0.46875 0,-0.28646 0.0195,-0.52734 0.0586,-0.72266 0.0391,-0.22135 0.0586,-0.3776 0.0586,-0.46875 v -0.0586 c -0.16764,-0.44004 -0.21921,-0.59578 -0.25196,-0.70703 z m -10.9414,0.0195 c -1.00784,0.002 -2.01561,0.004 -3.02344,0.006 0.004,0.48745 0.0344,0.85868 0.0957,1.0918 0.10417,0.39062 0.18229,0.72265 0.23438,0.99609 0.27343,0.0521 0.42317,0.13021 0.44922,0.23438 0.026,0.0781 0.0651,0.33854 0.11718,0.78125 l -0.44921,0.0391 c 0,0.11719 0.026,0.29948 0.0781,0.54687 0.14323,0.75521 0.20833,1.26302 0.19531,1.52344 v 0.0195 l -0.0781,1.52344 v 0.0391 l 0.42969,1.26953 c -10e-6,0.0391 -0.11719,0.50131 -0.35157,1.38672 -0.0391,0.14323 -0.0586,0.27995 -0.0586,0.41016 0,0.26041 0.19531,0.5664 0.58594,0.91797 l 0.0391,0.50781 c -0.35156,0.16927 -0.52735,0.35807 -0.52734,0.56641 0,0.026 0.0586,0.23437 0.17578,0.625 l -0.0586,0.42968 c -0.0391,0.46875 -0.13672,0.91146 -0.29297,1.32813 0.14323,0.0911 0.2474,0.13672 0.3125,0.13672 0.0911,0 0.20183,-0.026 0.33203,-0.0781 0.20834,-0.0911 0.34506,-0.13672 0.41016,-0.13672 0.74219,0.026 1.49089,-0.24088 2.2461,-0.80078 0.41666,-0.44271 0.71614,-0.75521 0.89843,-0.9375 -0.10416,-0.67708 -0.16276,-1.3151 -0.17578,-1.91406 -0.18229,-0.80729 -0.28646,-1.26953 -0.3125,-1.38672 l -0.23437,-0.44922 c -0.013,0 -0.0521,-0.20182 -0.11719,-0.60547 -0.0781,-0.40364 -0.20833,-0.63151 -0.39063,-0.68359 -0.20833,-0.0781 -0.3776,-0.16927 -0.50781,-0.27344 l 0.25391,-0.78125 0.60547,-0.11719 c -0.13021,-0.27343 -0.19532,-0.48177 -0.19532,-0.625 0,-0.013 0.026,-0.16276 0.0781,-0.44921 0.013,-0.10417 0.0195,-0.20834 0.0195,-0.3125 0,-0.19532 -0.007,-0.42318 -0.0195,-0.6836 l -0.72266,-0.54687 c 0.0521,-0.20834 0.0911,-0.37761 0.11719,-0.50782 0.013,-0.0521 0.10417,-0.35807 0.27344,-0.91796 l -0.13672,-0.25391 -0.13672,-0.89844 z m -9.76953,0.0176 c -0.3366,7.9e-4 -0.67318,0.001 -1.00977,0.002 -0.0256,0.0398 -0.0431,0.0756 -0.0781,0.1211 l -0.50781,-0.0586 c -0.10416,0.27344 -0.19531,0.46224 -0.27343,0.56641 l -0.35157,0.48828 c 0,0.013 0.0716,0.26042 0.21485,0.74219 0.013,0.0391 0.0195,0.0781 0.0195,0.11718 0,0.11719 -0.0846,0.23438 -0.25391,0.35157 -0.33854,0.22135 -0.53385,0.36458 -0.58594,0.42968 -0.026,0.0521 -0.2539,0.42969 -0.68359,1.13282 l -0.15625,0.625 -0.33203,0.58593 -0.21485,0.42969 -0.60546,1.11328 c -0.2474,0.46875 -0.46875,0.83334 -0.66407,1.09375 -0.1302,0 -0.21484,-0.013 -0.2539,-0.0391 -0.0911,-0.0651 -0.25391,-0.32552 -0.48828,-0.78125 l -0.39063,-0.58594 -0.8789,-1.95312 c -0.42969,-0.75521 -0.71615,-1.35417 -0.85938,-1.79688 l -0.37109,-0.13672 c -0.11719,-0.22135 -0.22787,-0.61197 -0.33203,-1.17187 l -0.46876,-0.11719 c -0.11718,-0.18229 -0.22135,-0.3125 -0.3125,-0.39062 -0.23437,-0.22136 -0.35156,-0.35808 -0.35156,-0.41016 l 0.0391,-0.33789 c -0.85353,0.002 -1.70701,0.002 -2.56054,0.004 l 0.13867,0.4707 0.17578,0.3125 c 0.0911,0.20833 0.22787,0.46875 0.41016,0.78125 0.0911,0.15625 0.26041,0.5013 0.50781,1.03516 l 0.625,-0.21485 c 0.18229,0.20834 0.27344,0.37761 0.27344,0.50781 0,0.0391 -0.007,0.0716 -0.0195,0.0977 -0.13021,0.36458 -0.19532,0.57292 -0.19532,0.625 0,0.35156 0.0911,0.67057 0.27344,0.95703 0.49479,0.78125 0.78776,1.32162 0.87891,1.6211 0.20833,0.65104 0.3776,1.15234 0.50781,1.5039 l 0.37109,0.0586 c 0.0911,0.28645 0.16927,0.55338 0.23438,0.80078 0.0781,0.36458 0.1888,0.64453 0.33203,0.83984 0.42969,0.54688 0.67708,0.87891 0.74219,0.99609 0.41666,0.98959 0.67708,1.54297 0.78125,1.66016 0.0911,0.10417 0.20833,0.15625 0.35156,0.15625 0.0391,0 0.1888,-0.007 0.44922,-0.0195 h 0.17578 0.41016 c 0.20833,-0.625 0.55338,-1.54297 1.03515,-2.75391 0.0911,-0.39062 0.22787,-0.72916 0.41016,-1.01562 l 0.21484,-0.46875 0.33203,-0.52735 0.25391,-0.625 0.27344,-0.625 0.50781,-1.38671 0.46875,-0.87891 c 0.20833,-0.44271 0.33854,-0.69662 0.39062,-0.76172 0.0781,-0.11719 0.11719,-0.19531 0.11719,-0.23437 0,-0.0911 -0.0195,-0.19532 -0.0586,-0.3125 0.54687,-0.41667 0.82031,-0.9375 0.82031,-1.5625 0,-0.15625 -0.0195,-0.35157 -0.0586,-0.58594 l 0.52734,-0.25391 c 0.0231,-0.0862 0.0322,-0.14054 0.0527,-0.2207 z m -20.43164,0.043 c -0.67969,0.002 -1.35939,0.006 -2.03907,0.008 -0.009,0.1493 -0.0234,0.30335 -0.0234,0.44336 0,0.41667 0.013,0.90495 0.0391,1.46484 0.22135,0.10417 0.33203,0.22136 0.33203,0.35157 0,0.26041 -0.17578,0.48828 -0.52735,0.68359 0.10417,0.53385 0.15625,0.89844 0.15626,1.09375 0,0.0911 -0.1237,0.59245 -0.3711,1.50391 l 0.17578,0.68359 -0.13672,0.44922 c 0.0651,0.22135 0.0977,0.37109 0.0977,0.44922 0,0.11718 -0.013,0.21484 -0.0391,0.29297 l -0.15625,0.58593 c 0,0.026 -0.007,0.41016 -0.0195,1.15235 -0.013,0.41666 -0.11068,0.71614 -0.29297,0.89843 l -0.15625,0.19532 1.5625,0.95703 -0.29297,0.39062 -0.3125,0.58594 c -0.0651,0.13021 -0.25391,0.29948 -0.56641,0.50781 -0.45573,0.3125 -0.72916,0.52735 -0.82031,0.64453 -0.26042,0.29948 -0.39063,0.47526 -0.39063,0.52735 v 0.0195 l 0.0195,0.17578 v 0.0391 c 0.11718,0.0521 0.19531,0.0781 0.23437,0.0781 0.013,0 0.4362,-0.14323 1.26953,-0.42969 l 0.625,-0.37109 c 0.76823,-0.2474 1.17188,-0.39063 1.21094,-0.42969 0.0391,-0.0521 0.0586,-0.11068 0.0586,-0.17578 0,-0.11719 -0.026,-0.25391 -0.0781,-0.41016 l 0.48828,-0.3125 c -0.013,-0.14323 -0.0195,-0.27344 -0.0195,-0.39062 0,-0.0651 0.0391,-0.2474 0.11719,-0.54688 l -1.07422,-0.37109 c -0.40365,-0.14323 -0.60547,-0.29948 -0.60547,-0.46875 0,-0.20834 0.26042,-0.40365 0.78125,-0.58594 0.55989,-0.19531 0.83984,-0.38411 0.83984,-0.56641 l -0.0195,-0.0586 c -0.14323,-0.29948 -0.21484,-0.5013 -0.21484,-0.60547 0,-0.10416 0.0195,-0.23437 0.0586,-0.39062 l -0.13672,-0.13672 h -0.15625 l -0.39062,0.48828 c -0.22136,-0.27344 -0.33203,-0.48828 -0.33203,-0.64453 0,-0.23438 0.27343,-0.51432 0.82031,-0.83985 0.16927,-0.10416 0.29297,-0.23437 0.37109,-0.39062 -0.14323,-0.33854 -0.21484,-0.68359 -0.21484,-1.03516 0,-0.46875 0.0391,-0.91797 0.11719,-1.34765 0.10416,-0.53386 0.15625,-0.85938 0.15625,-0.97657 0,-0.16927 -0.007,-0.44921 -0.0195,-0.83984 -0.013,-0.15625 -0.0195,-0.3125 -0.0195,-0.46875 0,-0.28646 0.0195,-0.52734 0.0586,-0.72266 0.0391,-0.22135 0.0586,-0.3776 0.0586,-0.46875 v -0.0586 c -0.14859,-0.39005 -0.18004,-0.49523 -0.22265,-0.62695 z m -13.15235,0.0469 c -0.86848,0.003 -1.73699,0.005 -2.60547,0.008 0.0755,0.25363 0.14063,0.48094 0.14063,0.5332 0,0.15625 -0.10417,0.23437 -0.3125,0.23437 l -1.44531,-0.11718 -1.73829,0.17578 -0.89843,0.0586 -1.15235,0.19531 -0.48828,-0.13672 -0.52734,0.0391 -0.52735,-0.0586 -0.5664,0.0781 -0.42969,-0.11719 h -1.11328 l -0.66406,-0.13672 -1.23047,0.60547 c -0.36459,0 -0.6836,-0.20182 -0.95703,-0.60547 -0.27344,-0.0521 -0.69662,-0.0977 -1.26953,-0.13672 -0.54688,-0.18229 -0.98308,-0.27994 -1.3086,-0.29297 H 113.125 c -0.46875,0 -0.83984,0.0456 -1.11328,0.13672 l -0.22461,-0.39257 c -0.0488,1.9e-4 -0.0977,-2.1e-4 -0.14649,0 l -0.46874,0.0605 c -0.0281,-0.026 -0.0483,-0.0366 -0.0742,-0.0586 -0.26107,0.001 -0.52214,0.003 -0.78321,0.004 -0.0383,0.0201 -0.0367,0.0115 -0.0801,0.0352 0.005,-0.0114 0.009,-0.0237 0.0137,-0.0352 -0.54231,0.002 -1.08465,0.006 -1.62696,0.008 -0.01,0.0495 -0.009,0.0783 -0.0273,0.14453 l -0.0586,0.0391 -0.53125,-0.18164 c -0.33268,0.001 -0.66537,0.004 -0.99805,0.006 -0.10143,0.14483 -0.20195,0.28702 -0.3457,0.48828 -0.11719,0.18229 -0.22787,0.44271 -0.33204,0.78125 -0.16927,0.23438 -0.2539,0.38412 -0.2539,0.44922 0,0.11719 0.0391,0.29948 0.11719,0.54687 0.14323,0.013 0.26692,0.0195 0.37109,0.0195 0.0781,0 0.14323,-0.007 0.19531,-0.0195 0.11719,-0.026 0.1888,-0.0391 0.21485,-0.0391 0.0521,0 0.1302,0.0391 0.23437,0.11719 l -0.0391,0.19531 -1.93359,3.00781 -0.48829,0.64454 c -0.026,0.0391 -0.0391,0.13671 -0.0391,0.29296 0,0.10417 0.007,0.22787 0.0195,0.3711 l -0.0781,0.0781 c -0.23438,0.0651 -0.35808,0.10417 -0.3711,0.11719 l -1.07422,1.95313 c -0.10416,0.15625 -0.40364,0.46875 -0.89843,0.9375 -0.35156,0.3125 -0.52735,0.60546 -0.52735,0.8789 0,0.0911 0.007,0.19531 0.0195,0.3125 -0.10417,0.19531 -0.22787,0.34505 -0.3711,0.44922 -0.26042,0.19531 -0.41016,0.31901 -0.44922,0.37109 -0.3776,0.52084 -0.63802,0.83334 -0.78125,0.9375 l -0.566404,0.35157 c -0.02604,0.026 -0.08464,0.12369 -0.175781,0.29297 0.299479,0.0911 0.572915,0.26041 0.820315,0.50781 0.10416,-0.013 0.19531,-0.0195 0.27344,-0.0195 0.11718,0 0.20182,0.0195 0.2539,0.0586 0.22136,0.13021 0.35156,0.19531 0.39063,0.19531 0.0911,0 0.22786,-0.0651 0.41015,-0.19531 0.10417,-0.0781 0.34505,-0.19531 0.72266,-0.35156 0.19531,-0.44271 0.38411,-0.72917 0.5664,-0.85938 0.11719,-0.0911 0.33204,-0.19531 0.64454,-0.3125 l 0.29296,-0.91797 c -0.29947,-0.24739 -0.44921,-0.4427 -0.44921,-0.58593 0,-0.10417 0.026,-0.17578 0.0781,-0.21485 l 1.07422,-0.68359 0.17578,-0.27344 c 0.19531,-0.32552 0.37761,-0.625 0.54688,-0.89844 l 0.9375,-1.89453 c 0.026,-0.0651 0.16276,-0.24088 0.41015,-0.52734 -0.013,-0.14323 -0.026,-0.25391 -0.0391,-0.33203 -0.0391,-0.19531 -0.0586,-0.33203 -0.0586,-0.41016 0,-0.0911 0.0521,-0.1888 0.15625,-0.29297 l 0.35156,0.0781 c 0.39062,-0.67709 0.69661,-1.19141 0.91797,-1.54297 0.3125,-0.3776 0.5664,-0.76823 0.76172,-1.17188 0.0391,-0.0781 0.1302,-0.23437 0.27343,-0.46875 0.29948,-0.026 0.58594,-0.0781 0.85938,-0.15625 0.46875,-0.11718 0.79427,-0.17578 0.97656,-0.17578 0.2474,0 0.53386,0.0326 0.85938,0.0977 0.23437,0.0391 0.42968,0.0586 0.58593,0.0586 0.013,0 0.11719,-0.013 0.3125,-0.0391 0.53386,-0.0781 0.82032,-0.13021 0.85938,-0.15625 0.41667,-0.22135 0.83333,-0.37109 1.25,-0.44922 l 0.54687,0.625 c 0.3125,-0.026 0.67058,-0.0846 1.07422,-0.17578 0.54688,-0.14323 0.85938,-0.21484 0.9375,-0.21484 0.0391,0 0.26693,0.0586 0.6836,0.17578 l 0.58593,-0.11719 1.21094,0.27344 L 120,119.3418 c 0.13021,0 0.39063,-0.007 0.78125,-0.0195 l 0.91797,-0.0195 0.52734,-0.0781 h 0.52735 l 0.625,-0.0586 0.5664,0.0977 c 0.59896,-0.13021 0.95703,-0.19531 1.07422,-0.19531 0.28646,0 0.66406,0.11068 1.13281,0.33203 0.35157,0.16927 0.625,0.26693 0.82032,0.29297 0.40364,0.0781 0.79427,0.2474 1.17187,0.50781 0.22136,0.18229 0.40365,0.27344 0.54688,0.27344 0.026,0 0.0911,-0.0195 0.19531,-0.0586 0.0521,-0.97657 0.30599,-1.46485 0.76172,-1.46485 0.50781,0 0.87239,0.23438 1.09375,0.70313 0.0781,0.15625 0.19531,0.65104 0.35156,1.48437 l 0.29297,0.6836 c 0.14323,0.66406 0.24739,1.07421 0.3125,1.23046 0.11719,0.2474 0.33203,0.57943 0.64453,0.9961 l 0.9375,-0.0781 c 0.026,0.10417 0.0391,0.19532 0.0391,0.27344 0,0.0781 -0.0651,0.16927 -0.19531,0.27344 -0.0651,0.0651 -0.17578,0.19531 -0.33203,0.39062 l 0.58594,0.52735 c -0.13021,0.27343 -0.19532,0.48828 -0.19532,0.64453 0,0.0521 0.013,0.14974 0.0391,0.29297 0.013,0.36458 0.026,0.5664 0.0391,0.60547 0.0391,0.16927 0.17578,0.36458 0.41016,0.58593 -0.013,0.11719 -0.0195,0.22136 -0.0195,0.3125 0,0.11719 0.17579,0.65756 0.52735,1.6211 0.19531,0.3125 0.31901,0.60547 0.37109,0.8789 0.0651,0.32552 0.26693,0.8724 0.60547,1.64063 0.72917,-0.29948 1.1849,-0.45573 1.36719,-0.46875 0.39062,-0.013 0.61849,-0.0326 0.68359,-0.0586 0.18229,-0.0391 0.49479,-0.15625 0.9375,-0.35156 -0.013,-0.11719 -0.0195,-0.21484 -0.0195,-0.29297 0,-0.22135 0.1237,-0.42968 0.37109,-0.625 -0.14323,-0.26041 -0.49479,-0.82031 -1.05468,-1.67968 -0.23438,-0.74219 -0.40365,-1.21094 -0.50782,-1.40625 -0.20833,-0.41667 -0.40364,-0.65756 -0.58593,-0.72266 -0.23438,-0.0781 -0.36459,-0.13021 -0.39063,-0.15625 -0.10417,-0.0521 -0.20833,-0.1888 -0.3125,-0.41016 0.37761,-0.18229 0.56641,-0.36458 0.56641,-0.54687 0,-0.37761 -0.39063,-0.77474 -1.17188,-1.19141 l 0.0391,-0.5664 -1.21093,-2.67579 c -0.18229,-0.27343 -0.32552,-0.55338 -0.42969,-0.83984 -0.0781,-0.22135 -0.46875,-0.99609 -1.17188,-2.32422 -0.13253,-0.24127 -0.2071,-0.40179 -0.30859,-0.59961 z" />
    <path
       sodipodi:type="spiral"
       style="fill:none;fill-rule:evenodd;stroke:#000000;stroke-width:0.26458332"
       id="path288"
       sodipodi:cx="40.377968"
       sodipodi:cy="29.341261"
       sodipodi:expansion="1"
       sodipodi:revolution="3"
       sodipodi:radius="26.919176"
       sodipodi:argument="-21.57522"
       sodipodi:t0="0.0268251"
       d="m 39.941402,28.766063 c -0.276465,-1.510064 1.887933,-1.683349 2.798639,-1.21758 2.214293,1.13247 2.133009,4.18553 0.786917,5.941728 -2.214809,2.889581 -6.54208,2.641987 -9.084816,0.356251 -3.594481,-3.231178 -3.165649,-8.92187 0.07441,-12.227903 4.226987,-4.313054 11.311028,-3.696289 15.370991,0.505077 5.038552,5.214038 4.230725,13.704982 -0.935741,18.514079 C 42.755208,46.405687 32.850058,45.405144 27.294638,39.27131 20.794826,32.094754 21.989048,20.771 29.091707,14.471055 37.246585,7.2378083 49.9918,8.6263183 57.03505,16.698789 65.002834,25.830895 63.419632,39.999533 54.376652,47.785219 44.268086,56.488335 28.674615,54.71016 20.147134,44.696157 14.017688,37.498218 12.410137,27.27002 15.753878,18.464853" />
  </g>
</svg>
